<?xml version="1.0" encoding="utf-8"?>
<!-- Generator: Adobe Illustrator 16.0.0, SVG Export Plug-In . SVG Version: 6.00 Build 0)  -->
<!DOCTYPE svg PUBLIC "-//W3C//DTD SVG 1.1//EN" "http://www.w3.org/Graphics/SVG/1.1/DTD/svg11.dtd">
<svg version="1.1" id="Layer_1" xmlns="http://www.w3.org/2000/svg" xmlns:xlink="http://www.w3.org/1999/xlink" x="0px" y="0px"
	 width="1000px" height="755.102px" viewBox="0 0 1000 755.102" enable-background="new 0 0 1000 755.102" xml:space="preserve">
<g>
	<path d="M366.864,201.745v-57.149h139.793v-35.899H370.452c7.981-20.357,27.478-36.511,40.218-45.39
		c9.771-6.791,19.586-12.233,28.674-16.442V93.58h35.778V0.064c-34.259,0-128.682,42.794-142.364,110.322
		c-67.293,13.731-109.544,108.115-109.544,142.484l251.973-0.065v-93.092h-35.843v57.134H269.666
		c4.161-8.958,9.536-18.684,16.188-28.286c8.804-12.801,24.942-32.352,45.211-40.368v53.552H366.864"/>
	<path d="M574.259,144.118h56.92v140.276h35.774V147.71c20.298,8.031,36.422,27.587,45.24,40.387
		c6.766,9.761,12.207,19.657,16.382,28.744H682v35.899h93.221c0-34.379-42.609-129.086-109.941-142.813
		C651.597,42.396,557.528,0,523.238,0l0.09,252.805h92.793v-35.963h-56.949V46.605c8.928,4.176,18.614,9.567,28.221,16.223
		c12.706,8.864,32.236,25.063,40.189,45.381h-53.323V144.118"/>
	<path d="M633.132,353.705v57.139H493.339v35.913h136.196c-7.963,20.334-27.475,36.541-40.199,45.355
		c-9.746,6.821-19.611,12.247-28.679,16.482v-46.75h-35.765v93.524c34.27,0,128.646-42.809,142.35-110.301
		c67.322-13.737,109.543-108.145,109.543-142.494l-251.952,0.06v93.113h35.824v-57.144H730.35
		c-4.186,8.978-9.518,18.669-16.184,28.275c-8.828,12.775-24.942,32.386-45.26,40.388v-53.561H633.132"/>
	<path d="M424.262,411.322h-56.939V271.031h-35.774v136.694c-20.269-8.017-36.397-27.593-45.251-40.394
		c-6.731-9.755-12.163-19.635-16.377-28.728h46.555v-35.909h-93.191c0,34.358,42.655,129.11,109.933,142.847
		c13.667,67.493,107.766,109.884,142.03,109.884l-0.065-252.791H382.37v35.969h56.975v170.191
		c-8.959-4.16-18.63-9.532-28.196-16.174c-12.775-8.897-32.251-25.056-40.228-45.395h53.342V411.322"/>
	<path d="M80.208,752.421c-1.007-0.238-2.312-0.319-3.921-0.319H0v-2.924c3.199,0,4.818-0.968,4.818-2.891v-73.082
		c0-1.948-1.619-2.899-4.818-2.899v-2.891h27.538v2.891c-2.984,0-4.489,0.951-4.489,2.885v64.004h53.238
		c1.609,0,2.915-0.368,3.921-1.111c1.041-0.766,1.529-1.803,1.529-3.069h2.895v22.088h-2.895
		C81.737,753.487,81.249,752.606,80.208,752.421"/>
	<path d="M183.854,684.815c0-1.172-0.449-2.063-1.371-2.657c-0.901-0.598-2.471-0.853-4.718-0.853h-51.957v19.87h31.439
		c2.123,0,3.792-0.264,4.963-0.866c1.181-0.583,1.764-2.132,1.764-4.584h2.879v25.136h-2.879c0-2.459-0.583-4.055-1.764-4.747
		c-1.171-0.703-2.84-1.051-4.963-1.051h-31.439v22.131h53.546c1.625,0,2.936-0.368,3.932-1.111c1.016-0.766,1.534-1.808,1.534-3.069
		h2.88v22.088h-2.88c0-1.614-0.518-2.495-1.534-2.686c-0.997-0.233-2.307-0.314-3.932-0.314h-74.671v-2.924
		c0.732,0,1.405-0.239,1.998-0.707c0.593-0.505,0.887-1.217,0.887-2.184v-73.082c0-0.967-0.293-1.693-0.887-2.167
		c-0.593-0.508-1.266-0.732-1.998-0.732v-2.891h73.083c2.247,0,3.816-0.354,4.718-1.051c0.922-0.693,1.371-1.615,1.371-2.781h2.895
		v21.232H183.854"/>
	<path d="M291.111,693.463l-3.244-0.962c0.209-0.646,0.344-1.29,0.344-1.923c0-1.604-1.011-3.073-2.999-4.335
		c-1.978-1.295-4.499-2.426-7.534-3.322c-3.064-0.893-6.397-1.579-9.98-2.003c-3.586-0.434-7.015-0.647-10.223-0.647
		c-3.956,0-7.902,0.562-11.804,1.68c-3.921,1.125-7.405,2.889-10.444,5.251c-3.074,2.361-5.555,5.4-7.414,9.172
		c-1.889,3.737-2.821,8.302-2.821,13.677c0,5.267,0.932,9.776,2.821,13.599c1.858,3.805,4.34,6.864,7.379,9.256
		c3.059,2.363,6.532,4.091,10.443,5.207c3.911,1.146,7.857,1.72,11.808,1.72c6.108,0,11.569-0.534,16.457-1.561
		c4.888-1.001,9.019-2.117,12.452-3.303v-13.852h-20.533c-1.504,0-2.621,0.309-3.368,0.951c-0.768,0.647-1.241,2.044-1.455,4.175
		h-2.885V705.66h2.885c0.214,1.808,0.687,2.99,1.455,3.453c0.747,0.508,1.863,0.724,3.368,0.724h40.168v2.91
		c-2.132,0.303-3.472,0.692-4.011,1.1c-0.527,0.443-0.807,1.38-0.807,2.736v18.19c0,1.066,0.314,1.804,0.977,2.102
		c0.644,0.315,1.366,0.708,2.242,1.123v2.565c-3.527,2.479-7.25,4.534-11.161,6.133c-3.912,1.595-7.892,2.865-11.883,3.787
		c-4.021,0.896-8.042,1.459-12.052,1.683c-4.021,0.21-7.947,0.329-11.818,0.329c-7.484,0-14.311-0.962-20.469-2.83
		c-6.163-1.873-11.455-4.668-15.839-8.355c-4.375-3.701-7.788-8.215-10.18-13.512c-2.436-5.321-3.637-11.335-3.637-18.121
		c0-6.746,1.201-12.794,3.637-18.115c2.421-5.308,5.804-9.832,10.18-13.612c4.415-3.724,9.691-6.583,15.839-8.586
		c6.168-1.974,12.99-2.969,20.469-2.969c4.743,0,9.242,0.328,13.527,0.956c4.28,0.647,8.096,1.391,11.415,2.207
		c3.318,0.782,6.089,1.539,8.286,2.242c2.192,0.704,3.558,1.046,4.101,1.046c0.952,0,1.699-0.204,2.243-0.633
		c0.543-0.448,1.066-0.808,1.594-1.131l1.958,1.131L291.111,693.463"/>
	<path d="M411.332,684.815c0-1.172-0.478-2.063-1.375-2.657c-0.912-0.598-2.512-0.853-4.738-0.853h-51.958v19.87h31.429
		c2.148,0,3.802-0.264,4.958-0.866c1.201-0.583,1.765-2.132,1.765-4.584h2.909v25.136h-2.909c0-2.459-0.563-4.055-1.765-4.747
		c-1.155-0.703-2.81-1.051-4.958-1.051h-31.429v22.131h53.571c1.59,0,2.925-0.368,3.917-1.111c1.026-0.766,1.52-1.808,1.52-3.069
		h2.899v22.088h-2.899c0-1.614-0.494-2.495-1.52-2.686c-0.991-0.233-2.327-0.314-3.917-0.314h-74.712v-2.924
		c0.752,0,1.43-0.239,2.023-0.707c0.573-0.505,0.872-1.217,0.872-2.184v-73.082c0-0.967-0.299-1.693-0.872-2.167
		c-0.593-0.508-1.271-0.732-2.023-0.732v-2.891h73.098c2.227,0,3.826-0.354,4.738-1.051c0.897-0.693,1.375-1.615,1.375-2.781h2.86
		v21.232H411.332"/>
	<path d="M442.184,749.178c2.042,0,3.055-0.962,3.055-2.895V673.21c0-1.959-1.012-2.91-3.055-2.91v-2.885h27.428v2.885
		c-0.856,0-1.265,0.55-1.265,1.594c0,0.888,1.065,2.383,3.193,4.539l46.088,47.947v-51.17c0-1.959-1.426-2.91-4.187-2.91v-2.885
		h24.245v2.885c-2.043,0-3.049,0.951-3.049,2.91v73.073c0,1.933,1.006,2.895,3.049,2.895v2.924h-25.988v-2.924
		c1.385,0,2.072-0.474,2.072-1.431c0-0.762-0.856-2.002-2.561-3.717l-48.938-51.189v53.442c0,1.933,1.241,2.895,3.697,2.895v2.924
		h-23.786V749.178"/>
	<path d="M620.656,667.415c5.889,0,11.359,0.847,16.451,2.576c5.053,1.714,9.467,4.305,13.193,7.802
		c3.738,3.47,6.688,7.878,8.83,13.214c2.142,5.296,3.208,11.545,3.208,18.729c0,7.205-1.066,13.472-3.208,18.769
		c-2.143,5.291-5.092,9.695-8.83,13.2c-3.727,3.496-8.141,6.087-13.193,7.801c-5.092,1.724-10.563,2.596-16.451,2.596h-53.224
		v-2.924c2.462,0,3.687-0.962,3.687-2.895v-73.078c0-1.954-1.225-2.899-3.687-2.899v-2.891H620.656 M614.238,738.2
		c5.041,0,9.416-0.418,13.174-1.279c3.736-0.857,6.836-2.377,9.316-4.574c2.441-2.207,4.295-5.132,5.541-8.773
		c1.215-3.648,1.834-8.257,1.834-13.837c0-5.586-0.619-10.17-1.834-13.826c-1.246-3.647-3.1-6.566-5.541-8.748
		c-2.48-2.214-5.58-3.729-9.316-4.615c-3.758-0.832-8.133-1.241-13.174-1.241h-24.854V738.2H614.238z"/>
	<path d="M677.884,749.178c1.396-0.214,2.491-0.903,3.288-2.078c0.788-1.186,1.595-2.531,2.322-4.006l29.686-62.654
		c0.737-1.38,1.395-2.681,1.974-3.867c0.617-1.191,0.905-2.192,0.905-3.059c0-1.071-0.367-1.809-1.104-2.257
		c-0.788-0.413-1.564-0.741-2.412-0.951v-2.891h27.075v2.891c-0.748,0.21-1.485,0.522-2.232,0.861
		c-0.747,0.398-1.096,1.172-1.096,2.347c0,0.866,0.149,1.724,0.547,2.565c0.359,0.867,0.938,2.004,1.675,3.39l33.362,65.528
		c0.528,1.172,1.235,2.029,2.152,2.576c0.906,0.522,1.953,1.076,3.149,1.604v2.924h-28.231v-2.924c0.439,0,0.967-0.154,1.596-0.474
		c0.647-0.309,0.956-0.797,0.956-1.45c0-1.065-0.429-2.456-1.286-4.16l-6.088-11.928h-39.143l-5.77,11.41
		c-1.066,2.252-1.585,3.861-1.585,4.849c0,1.166,1.007,1.753,3.04,1.753v2.924h-22.78V749.178 M738.352,719.283l-13.463-29.925
		l-15.076,29.925H738.352z"/>
	<path d="M852.41,667.415c5.121,0,9.805,0.438,13.97,1.371c4.177,0.906,7.743,2.351,10.772,4.344c3,1.968,5.271,4.559,6.896,7.719
		c1.613,3.168,2.431,7.085,2.431,11.692c0,7.112-2.102,12.526-6.288,16.298c-4.175,3.743-9.785,6.283-16.87,7.573l21.305,30.539
		c0.788,1.055,1.654,1.698,2.671,1.918c1.017,0.21,1.943,0.324,2.801,0.324v2.908h-29.985v-2.908c0.967,0,1.794-0.17,2.491-0.489
		c0.698-0.309,1.047-0.738,1.047-1.279c0-0.524-0.209-1.152-0.638-1.834c-0.448-0.714-1.097-1.65-1.934-2.84l-17.727-25.072h-23.02
		v28.608c0,0.967,0.349,1.699,1.017,2.184c0.696,0.493,1.942,0.723,3.767,0.723v2.908h-27.693v-2.924
		c3.119,0,4.654-0.968,4.654-2.891v-73.082c0-1.948-1.535-2.899-4.654-2.899v-2.891H852.41 M848.204,705.202
		c3.896,0,7.115-0.289,9.717-0.877c2.571-0.598,4.604-1.431,6.099-2.49c1.523-1.097,2.591-2.338,3.258-3.833
		c0.628-1.435,0.937-3.034,0.937-4.738c0-1.733-0.309-3.309-0.937-4.798c-0.667-1.44-1.734-2.711-3.258-3.815
		c-1.495-1.046-3.527-1.879-6.099-2.492c-2.602-0.598-5.82-0.853-9.717-0.853h-27.871v23.896H848.204z"/>
	<path d="M938.925,667.415v2.891c-0.937,0-1.863,0.135-2.71,0.388c-0.856,0.285-1.285,0.952-1.285,2.019
		c0,0.667,0.777,2.173,2.331,4.589c1.564,2.406,3.368,5.157,5.431,8.222c2.093,3.064,4.265,6.177,6.498,9.406
		c2.231,3.214,4.036,5.944,5.421,8.205l18.744-25.897c0.837-1.316,1.594-2.332,2.103-3.079c0.527-0.742,0.817-1.445,0.817-2.103
		c0-0.748-0.519-1.205-1.535-1.415c-1.017-0.25-1.953-0.334-2.801-0.334v-2.891H1000v2.891c-0.856,0-1.645,0.064-2.401,0.225
		c-0.776,0.163-1.525,0.552-2.321,1.13c-0.798,0.598-1.664,1.47-2.571,2.602c-0.917,1.11-2.003,2.63-3.279,4.564l-27.273,38.794
		v28.667c0,1.923,1.227,2.891,3.677,2.891v2.924h-25.28v-2.924c0.946,0,1.754-0.239,2.392-0.707
		c0.647-0.505,0.967-1.217,0.967-2.184V717.62l-30.962-43.463c-0.757-1.072-1.903-1.959-3.438-2.73
		c-1.534-0.782-2.88-1.121-3.926-1.121v-2.891H938.925"/>
</g>
</svg>
